<svg xmlns="http://www.w3.org/2000/svg" viewBox="0 0 73.98 82"><title>Asset 1</title><g id="Layer_2" data-name="Layer 2"><g id="Layer_1-2" data-name="Layer 1"><path d="M20,82a19.66,19.66,0,0,1-14.1-5.9,20,20,0,0,1,0-28.3L50.15,4a14,14,0,0,1,19.7,19.9L25.55,67.7A7.87,7.87,0,0,1,20,70a8.27,8.27,0,0,1-5.7-2.3,8,8,0,0,1,0-11.3l22.3-21.8a2,2,0,1,1,2.8,2.8L17.15,59.2a4,4,0,0,0,0,5.6A4,4,0,0,0,20,66a3.63,3.63,0,0,0,2.8-1.2L67.05,21A10,10,0,0,0,52.85,6.9L8.65,50.7a16.06,16.06,0,0,0,0,22.6,15.93,15.93,0,0,0,22.6,0l38.3-37.8a2,2,0,0,1,2.8,2.8L34.05,76.2A20,20,0,0,1,20,82Z"/></g></g></svg>