<svg xmlns="http://www.w3.org/2000/svg" width="160" height="48" viewBox="0 0 160 48">
    <g fill="#161E2E" fill-rule="evenodd">
        <path d="M0 47.53V32.61h6.088c1.596 0 2.777.377 3.543 1.13.766.753 1.149 1.912 1.149 3.476 0 1.185-.283 2.137-.849 2.854-.565.718-1.352 1.216-2.362 1.494l3.425 5.966H7.827L4.681 41.8H2.856v5.73H0zm2.856-8.076h3.608c.894 0 1.342-.496 1.342-1.489v-1.531c0-.5-.099-.859-.296-1.077-.196-.217-.545-.326-1.046-.326H2.856v4.423zm18.443.622c0-2.557.578-4.494 1.734-5.811 1.156-1.318 2.797-1.976 4.923-1.976 2.125 0 3.768.658 4.928 1.976 1.16 1.317 1.74 3.254 1.74 5.81 0 2.557-.58 4.494-1.74 5.811-1.16 1.318-2.803 1.976-4.928 1.976-2.126 0-3.767-.658-4.923-1.976-1.156-1.317-1.734-3.254-1.734-5.81zm3.07 2.302c0 .5.097.94.29 1.318.194.378.451.7.773.964.323.264.698.46 1.128.589.43.128.895.193 1.396.193.5 0 .968-.065 1.4-.193.434-.129.811-.325 1.133-.59.323-.263.578-.587.768-.969.19-.382.285-.819.285-1.312v-4.605c0-.5-.095-.94-.285-1.318a2.93 2.93 0 0 0-.768-.964 3.267 3.267 0 0 0-1.132-.594 4.78 4.78 0 0 0-1.401-.198c-.501 0-.967.066-1.396.198-.43.132-.805.33-1.128.594-.322.264-.58.586-.773.964-.193.379-.29.818-.29 1.318v4.605zm21.3 5.152V32.61h6.377c.673 0 1.292.07 1.857.209.566.14 1.049.359 1.45.659.4.3.712.69.934 1.172.222.482.333 1.063.333 1.741 0 .85-.202 1.558-.607 2.126-.404.568-.957.984-1.659 1.248.795.221 1.426.621 1.895 1.2.47.578.704 1.317.704 2.217 0 .792-.115 1.467-.344 2.024-.229.557-.553 1.007-.972 1.35-.418.342-.923.59-1.514.744a7.83 7.83 0 0 1-1.97.23h-6.485zm2.855-2.41h4.048c.472 0 .825-.107 1.058-.321.232-.214.349-.553.349-1.018v-1.467c0-.85-.44-1.275-1.321-1.275h-4.134v4.081zm0-6.49h3.898c.472 0 .794-.111.966-.332.172-.222.258-.55.258-.986v-1.146c0-.757-.408-1.135-1.224-1.135h-3.898v3.599zm18.883 1.446c0-2.557.578-4.494 1.734-5.811 1.156-1.318 2.797-1.976 4.923-1.976s3.769.658 4.928 1.976c1.16 1.317 1.74 3.254 1.74 5.81 0 2.557-.58 4.494-1.74 5.811-1.16 1.318-2.802 1.976-4.928 1.976s-3.767-.658-4.923-1.976c-1.156-1.317-1.734-3.254-1.734-5.81zm3.071 2.302c0 .5.097.94.29 1.318.193.378.45.7.773.964.322.264.698.46 1.127.589.43.128.895.193 1.396.193.501 0 .968-.065 1.401-.193.433-.129.81-.325 1.133-.59.322-.263.578-.587.768-.969.19-.382.284-.819.284-1.312v-4.605c0-.5-.095-.94-.284-1.318a2.93 2.93 0 0 0-.768-.964 3.267 3.267 0 0 0-1.133-.594 4.78 4.78 0 0 0-1.401-.198c-.501 0-.966.066-1.396.198-.43.132-.805.33-1.127.594-.322.264-.58.586-.773.964-.193.379-.29.818-.29 1.318v4.605zm19.87-7.347v-2.42h11.564v2.42h-4.348v12.5h-2.867v-12.5H90.35zm21.826 12.5V32.61h2.856v14.92h-2.856zm13.912-7.413c0-1.185.13-2.26.391-3.224.262-.964.657-1.787 1.187-2.468a5.308 5.308 0 0 1 2.002-1.58c.806-.372 1.752-.557 2.84-.557a6.73 6.73 0 0 1 2.126.326 5.03 5.03 0 0 1 1.718.954c.487.417.877.923 1.17 1.515.294.593.462 1.253.505 1.982h-2.867c-.071-.793-.352-1.386-.843-1.778-.49-.393-1.161-.59-2.013-.59-.45 0-.871.074-1.261.22-.39.147-.725.352-1.004.616-.28.264-.496.586-.65.964-.154.379-.23.803-.23 1.275v4.563c0 .45.083.865.252 1.247.168.382.399.71.692.986.294.275.635.489 1.025.642.39.154.811.23 1.262.23.895 0 1.585-.192 2.072-.578.487-.385.802-1.017.945-1.896h2.856c-.115.864-.34 1.604-.676 2.218a4.716 4.716 0 0 1-1.278 1.51 5.33 5.33 0 0 1-1.782.878c-.673.193-1.4.29-2.18.29-1.088 0-2.022-.195-2.802-.584a5.425 5.425 0 0 1-1.944-1.612c-.515-.686-.896-1.502-1.143-2.448s-.37-1.98-.37-3.1zm22.06 2.957h2.857c.114.878.45 1.504 1.009 1.88.558.374 1.278.562 2.158.562.837 0 1.542-.174 2.115-.52.573-.346.859-.848.859-1.505 0-.528-.165-.95-.494-1.264-.33-.314-.834-.557-1.514-.728l-2.92-.771c-1.231-.321-2.144-.848-2.738-1.58-.594-.732-.891-1.644-.891-2.737 0-.6.129-1.153.386-1.66.258-.507.621-.942 1.09-1.307.469-.364 1.04-.648 1.713-.851.672-.204 1.428-.305 2.265-.305.759 0 1.466.087 2.12.262a4.905 4.905 0 0 1 1.708.809c.483.364.878.832 1.186 1.403.308.571.498 1.242.57 2.014h-2.857c-.043-.407-.148-.75-.316-1.029a2.094 2.094 0 0 0-.629-.67 2.352 2.352 0 0 0-.848-.347 4.875 4.875 0 0 0-.977-.097c-.794 0-1.419.157-1.873.472-.455.314-.682.742-.682 1.285 0 .571.177 1.005.531 1.301.355.297.89.541 1.605.734l2.545.664c1.274.336 2.239.843 2.894 1.521.655.678.982 1.632.982 2.86 0 .685-.14 1.3-.419 1.842a3.953 3.953 0 0 1-1.186 1.382c-.512.378-1.124.667-1.836.867-.712.2-1.494.3-2.346.3-.838 0-1.61-.087-2.32-.262a5.432 5.432 0 0 1-1.867-.836 4.315 4.315 0 0 1-1.3-1.483c-.329-.607-.522-1.342-.58-2.206zM52.37 2.436V0h11.495v2.436h-4.323v12.581h-2.85V2.437H52.37zm21.692 12.581V0h6.057c1.588 0 2.763.38 3.525 1.137.762.759 1.143 1.925 1.143 3.499 0 1.193-.281 2.15-.844 2.873-.563.722-1.346 1.223-2.35 1.504l3.408 6.004h-3.152L78.72 9.25h-1.816v5.767h-2.841zm2.841-8.128h3.59c.89 0 1.335-.5 1.335-1.499V3.85c0-.503-.098-.865-.294-1.084-.196-.219-.543-.329-1.041-.329h-3.59V6.89zm17.738 8.128L99.721 0h3.026l5.058 15.017h-3.07l-.983-3.201h-5.08l-.962 3.201h-3.069zm4.77-5.627h3.614l-1.722-5.919h-.096L99.411 9.39z"/>
    </g>
</svg>
